<svg width="23" height="22" viewBox="0 0 23 22" fill="none" xmlns="http://www.w3.org/2000/svg">
<path fill-rule="evenodd" clip-rule="evenodd" d="M11.5 0.25C5.56294 0.25 0.75 5.06294 0.75 11C0.75 16.9371 5.56294 21.75 11.5 21.75C17.4371 21.75 22.25 16.9371 22.25 11C22.25 5.06294 17.4371 0.25 11.5 0.25ZM12.25 7C12.25 6.58579 11.9142 6.25 11.5 6.25C11.0858 6.25 10.75 6.58579 10.75 7V10.25H7.5C7.08579 10.25 6.75 10.5858 6.75 11C6.75 11.4142 7.08579 11.75 7.5 11.75H10.75V15C10.75 15.4142 11.0858 15.75 11.5 15.75C11.9142 15.75 12.25 15.4142 12.25 15V11.75H15.5C15.9142 11.75 16.25 11.4142 16.25 11C16.25 10.5858 15.9142 10.25 15.5 10.25H12.25V7Z" fill="white"/>
</svg>
